<svg class="guage-div guage-pwa" viewBox="0 0 200 200" width="200" height="200" x="${offset}" y="0">
	<svg viewBox="0 0 60 60" width="112" height="112" x="44" y="4">
		<defs>
			<linearGradient id="lh-gauge--pwa__check-circle__gradient-0" x1="50%" y1="0%" x2="50%" y2="100%">
				<stop stop-color="#00C852" offset="0%"></stop>
				<stop stop-color="#009688" offset="100%"></stop>
			</linearGradient>
			<linearGradient id="lh-gauge--pwa__installable__shadow-gradient-0" x1="76.056%" x2="24.111%" y1="82.995%" y2="24.735%">
				<stop stop-color="#A5D6A7" offset="0%"></stop>
				<stop stop-color="#80CBC4" offset="100%"></stop>
			</linearGradient>
			<linearGradient id="lh-gauge--pwa__fast-reliable__shadow-gradient-0" x1="76.056%" y1="82.995%" x2="25.678%" y2="26.493%">
				<stop stop-color="#64B5F6" offset="0%"></stop>
				<stop stop-color="#2979FF" offset="100%"></stop>
			</linearGradient>

			<g id="lh-gauge--pwa__fast-reliable-badge-0">
				<circle fill="#FFFFFF" cx="10" cy="10" r="10"></circle>
				<path fill="#304FFE" d="M10 3.58l5.25 2.34v3.5c0 3.23-2.24 6.26-5.25 7-3.01-.74-5.25-3.77-5.25-7v-3.5L10 3.58zm-.47 10.74l2.76-4.83.03-.07c.04-.08 0-.24-.22-.24h-1.64l.47-3.26h-.47l-2.7 4.77c-.02.01.05-.1-.04.05-.09.16-.1.31.18.31h1.63l-.47 3.27h.47z"></path>
			</g>
			<g id="lh-gauge--pwa__installable-badge-0">
				<circle fill="#FFFFFF" cx="10" cy="10" r="10"></circle>
				<path fill="#009688" d="M10 4.167A5.835 5.835 0 0 0 4.167 10 5.835 5.835 0 0 0 10 15.833 5.835 5.835 0 0 0 15.833 10 5.835 5.835 0 0 0 10 4.167zm2.917 6.416h-2.334v2.334H9.417v-2.334H7.083V9.417h2.334V7.083h1.166v2.334h2.334v1.166z"></path>
			</g>
		</defs>
		<g stroke="none" fill-rule="nonzero">
			<!-- Background and PWA logo -->
			<circle class="lh-gauge--pwa__disc" cx="30" cy="30" r="30"></circle>
			<g class="lh-gauge--pwa__logo">
				<path d="M35.66 19.39l.7-1.75h2L37.4 15 38.6 12l3.4 9h-2.51l-.58-1.61z"></path>
				<path d="M33.52 21l3.65-9h-2.42l-2.5 5.82L30.5 12h-1.86l-1.9 5.82-1.35-2.65-1.21 3.72L25.4 21h2.38l1.72-5.2 1.64 5.2z"></path>
				<path fill-rule="nonzero" d="M20.3 17.91h1.48c.45 0 .85-.05 1.2-.15l.39-1.18 1.07-3.3a2.64 2.64 0 0 0-.28-.37c-.55-.6-1.36-.91-2.42-.91H18v9h2.3V17.9zm1.96-3.84c.22.22.33.5.33.87 0 .36-.1.65-.29.87-.2.23-.59.35-1.15.35h-.86v-2.41h.87c.52 0 .89.1 1.1.32z"></path>
			</g>
			<!-- Installable obj -->
			<g class="lh-gauge--pwa__component lh-gauge--pwa__installable-badge" transform="translate(20, 29)">
				<path fill="url(#lh-gauge--pwa__installable__shadow-gradient-0)" d="M33.629 19.487c-4.272 5.453-10.391 9.39-17.415 10.869L3 17.142 17.142 3 33.63 19.487z"></path>
				<use href="#lh-gauge--pwa__installable-badge-0"></use>
			</g>
		</g>
	</svg>
	<text class="guage-title" y="160px" alignment-baseline="central" dominant-baseline="central" text-anchor="middle">
		<tspan x="100px" dy="-6px">Progressive</tspan>
		<tspan x="100px" dy="30px">Web App</tspan>
	</text>
</svg>